<?xml version="1.0" encoding="iso-8859-1"?>
<!-- Generator: Adobe Illustrator 25.4.1, SVG Export Plug-In . SVG Version: 6.00 Build 0)  -->
<svg version="1.1" id="Layer_1" xmlns="http://www.w3.org/2000/svg" xmlns:xlink="http://www.w3.org/1999/xlink" x="0px" y="0px"
	 viewBox="0 0 48 48" style="enable-background:new 0 0 48 48;" xml:space="preserve">
<g>
	<g>
		<path style="fill:#212121;" d="M24,4C13,4,4,13,4,24s9,20,20,20s20-9,20-20S35,4,24,4z"/>
	</g>
	<g>
		<path style="fill:#FFFFFF;" d="M10.25,25.625c-0.012-0.279,0.5-6.375,9.875-8.25c0,0,10.698-0.832,11.786,7.897L33.375,42
			c0,0-11.875,2.5-12.625,1.25s0.75-14.625,0.75-14.625S10.5,31.25,10.25,25.625z"/>
	</g>
	<g>
		
			<rect x="21.611" y="3.993" transform="matrix(0.9981 -0.0618 0.0618 0.9981 -0.4411 1.3661)" style="fill:#FFFFFF;" width="0.5" height="7.64"/>
	</g>
	<g>
		
			<rect x="24.625" y="3.961" transform="matrix(0.9981 -0.0618 0.0618 0.9981 -1.4473 1.5835)" style="fill:#FFFFFF;" width="0.5" height="40.452"/>
	</g>
	<g>
		
			<rect x="17.967" y="12.373" transform="matrix(0.9981 -0.0618 0.0618 0.9981 -0.8029 1.1511)" style="fill:#FFFFFF;" width="0.5" height="2.38"/>
	</g>
	<g>
		
			<rect x="19.863" y="9.37" transform="matrix(0.9981 -0.0618 0.0618 0.9981 -0.6954 1.2656)" style="fill:#FFFFFF;" width="0.5" height="5.01"/>
	</g>
	<g>
		
			<rect x="15.36" y="33.996" transform="matrix(0.9981 -0.0618 0.0618 0.9981 -2.1985 1.0335)" style="fill:#FFFFFF;" width="0.5" height="4.133"/>
	</g>
	<g>
		
			<rect x="16.339" y="5.598" transform="matrix(0.9981 -0.0618 0.0618 0.9981 -1.1773 1.0626)" style="fill:#FFFFFF;" width="0.5" height="27.928"/>
	</g>
	<g>
		
			<rect x="11.449" y="35.371" transform="matrix(0.9981 -0.0618 0.0618 0.9981 -2.2954 0.7948)" style="fill:#FFFFFF;" width="0.5" height="4.258"/>
	</g>
	<g>
		
			<rect x="10.946" y="26.369" transform="matrix(0.9981 -0.0618 0.0618 0.9981 -1.7943 0.7482)" style="fill:#FFFFFF;" width="0.5" height="6.011"/>
	</g>
	<g>
		
			<rect x="9.924" y="9.494" transform="matrix(0.9981 -0.0618 0.0618 0.9981 -0.7763 0.6534)" style="fill:#FFFFFF;" width="0.5" height="6.763"/>
	</g>
	<g>
		
			<rect x="12.312" y="14.992" transform="matrix(0.9981 -0.0618 0.0618 0.9981 -1.1577 0.8127)" style="fill:#FFFFFF;" width="0.5" height="8.266"/>
	</g>
	<g>
		
			<rect x="7.047" y="26.241" transform="matrix(0.9981 -0.0618 0.0618 0.9981 -1.9008 0.5099)" style="fill:#FFFFFF;" width="0.5" height="9.518"/>
	</g>
	<g>
		
			<rect x="6.281" y="14.367" transform="matrix(0.9981 -0.0618 0.0618 0.9981 -1.1387 0.4393)" style="fill:#FFFFFF;" width="0.5" height="8.516"/>
	</g>
	<g>
		
			<rect x="9.267" y="31.494" transform="matrix(0.9981 -0.0618 0.0618 0.9981 -2.1186 0.6545)" style="fill:#FFFFFF;" width="0.5" height="6.137"/>
	</g>
	<g>
		
			<rect x="8.362" y="11.359" transform="matrix(0.9981 -0.0618 0.0618 0.9981 -1.2159 0.5704)" style="fill:#FFFFFF;" width="0.5" height="17.158"/>
	</g>
	<g>
		
			<rect x="25.909" y="9.995" transform="matrix(0.9981 -0.0618 0.0618 0.9981 -0.7305 1.6414)" style="fill:#FFFFFF;" width="0.5" height="5.26"/>
	</g>
	<g>
		
			<rect x="27.654" y="3.991" transform="matrix(0.9981 -0.0618 0.0618 0.9981 -0.4719 1.7403)" style="fill:#FFFFFF;" width="0.5" height="9.017"/>
	</g>
	<g>
		
			<rect x="30.745" y="10.22" transform="matrix(0.9981 -0.0618 0.0618 0.9981 -1.5552 1.9653)" style="fill:#FFFFFF;" width="0.5" height="31.811"/>
	</g>
	<g>
		
			<rect x="31.708" y="5.242" transform="matrix(0.9981 -0.0618 0.0618 0.9981 -0.5182 1.9926)" style="fill:#FFFFFF;" width="0.5" height="8.266"/>
	</g>
	<g>
		
			<rect x="33.971" y="6.862" transform="matrix(0.9981 -0.0618 0.0618 0.9981 -0.7766 2.141)" style="fill:#FFFFFF;" width="0.5" height="13.526"/>
	</g>
	<g>
		
			<rect x="36.176" y="7.732" transform="matrix(0.9981 -0.0618 0.0618 0.9981 -0.9771 2.2834)" style="fill:#FFFFFF;" width="0.5" height="18.41"/>
	</g>
	<g>
		
			<rect x="39.147" y="28.617" transform="matrix(0.9981 -0.0618 0.0618 0.9981 -1.9401 2.4959)" style="fill:#FFFFFF;" width="0.5" height="8.015"/>
	</g>
	<g>
		
			<rect x="38.339" y="15.868" transform="matrix(0.9981 -0.0618 0.0618 0.9981 -1.135 2.4216)" style="fill:#FFFFFF;" width="0.5" height="7.389"/>
	</g>
	<g>
		
			<rect x="40.579" y="12.604" transform="matrix(0.9981 -0.0618 0.0618 0.9981 -1.3703 2.5678)" style="fill:#FFFFFF;" width="0.5" height="21.666"/>
	</g>
	<g>
		<circle style="fill:#212121;" cx="17.923" cy="21.859" r="0.742"/>
	</g>
	<g>
		<circle style="fill:#212121;" cx="14.404" cy="21.38" r="0.646"/>
	</g>
	<path style="fill:#212121;" d="M24,3C12.42,3,3,12.421,3,24s9.42,21,21,21s21-9.421,21-21S35.58,3,24,3z M22.026,42.896
		c0.78-4.999,0.275-11.096,0.054-13.234c1.277-0.349,2.166-0.684,2.284-0.731c0.514-0.201,0.769-0.78,0.568-1.295
		c-0.201-0.515-0.78-0.772-1.295-0.568c-2.475,0.966-9.415,2.804-11.768-0.243c-0.718-0.929-0.854-1.962-0.404-3.069
		c1.024-2.522,4.674-4.836,8.491-5.381c5.454-0.78,10.296,3.085,10.97,7.063c0.589,3.477,1.493,13.004,1.721,15.459
		C30.05,42.232,27.115,43,24,43C23.333,43,22.675,42.964,22.026,42.896z M34.552,39.789c-0.319-3.376-1.106-11.443-1.655-14.685
		c-0.829-4.895-6.455-9.678-13.225-8.71c-4.538,0.648-8.769,3.428-10.061,6.609c-0.716,1.763-0.477,3.554,0.674,5.044
		c2.204,2.855,6.541,2.706,9.828,2.071c0.219,2.251,0.644,7.929-0.062,12.462C11.464,40.758,5,33.122,5,24C5,13.523,13.523,5,24,5
		s19,8.523,19,19C43,30.574,39.642,36.377,34.552,39.789z"/>
</g>
</svg>