<?xml version="1.0" encoding="iso-8859-1"?><!-- Generator: Adobe Illustrator 19.1.1, SVG Export Plug-In . SVG Version: 6.00 Build 0)  --><svg xmlns="http://www.w3.org/2000/svg" xmlns:xlink="http://www.w3.org/1999/xlink" viewBox="0 0 48 48" width="480px" height="480px"><path style="fill:#FFFFFF;" d="M44.083,29.79c-0.183-0.829-0.935-1.796-2.452-1.796c-0.31,0-0.649,0.039-1.035,0.119c-0.708,0.146-1.311,0.217-1.842,0.241c4.133-7.04,6.816-16.819,4.159-20.214c-3.501-4.473-8.214-5.141-10.711-5.141L31.967,3c-0.929,0.015-1.893,0.129-2.863,0.339l-3.583,0.774C25.033,4.052,24.536,4.009,24.018,4l-0.03,0l-0.016,0l-0.152-0.001c-1.593,0-3.046,0.338-4.341,0.973l-1.251-0.493c-1.72-0.678-4.308-1.485-6.868-1.485c-0.144,0-0.287,0.003-0.431,0.008C8.407,3.093,6.241,4.05,4.664,5.769C2.696,7.915,1.8,11.054,2.003,15.1C2.013,15.309,4.461,36,11.4,36h0.025l0.064-0.001c0.901-0.022,1.76-0.384,2.563-1.077c0.613,0.46,1.406,0.732,2.145,0.84c0.488,0.115,1.366,0.278,2.418,0.278c1.284,0,2.442-0.263,3.44-0.738c-0.001,0.88-0.006,1.994-0.016,3.418l-0.001,0.075l0.005,0.075c0.097,1.419,0.342,2.698,0.711,3.701c1.051,2.859,2.866,4.434,5.111,4.434c0.093,0,0.188-0.003,0.284-0.009c1.846-0.114,3.717-1.151,5.004-2.772c1.393-1.755,1.715-3.607,1.839-5.026L35,39.111v-0.088v-4.079l0.103,0.01l0.436,0.038l0.042,0.004l0.042,0.002c0.124,0.006,0.252,0.008,0.381,0.008c1.507,0,3.362-0.391,4.616-0.974C41.819,33.476,44.559,31.948,44.083,29.79z"/><path style="fill:#0277BD;" d="M33,34c0-0.205,0.012-0.376,0.018-0.565C33.008,33.184,33,33,33,33s0.012-0.009,0.032-0.022c0.149-2.673,0.886-3.703,1.675-4.29c-0.11-0.153-0.237-0.318-0.356-0.475c-0.333-0.437-0.748-0.979-1.192-1.674l-0.082-0.158c-0.067-0.164-0.229-0.447-0.435-0.819c-1.183-2.14-3.645-6.592-1.96-9.404c0.738-1.232,2.122-1.942,4.121-2.117C33.986,11.718,30.925,6.115,23.985,6c-0.002,0-0.004,0-0.006,0c-6.041-0.098-8.026,5.392-8.672,8.672c0.89-0.377,1.906-0.606,2.836-0.606c0.014,0,0.029,0,0.043,0c2.29,0.017,3.865,1.239,4.323,3.354c0.335,1.552,0.496,2.91,0.492,4.153c-0.01,2.719-0.558,4.149-1.042,5.411l-0.154,0.408c-0.124,0.334-0.255,0.645-0.379,0.937c-0.126,0.298-0.237,0.563-0.318,0.802c0.484,0.11,0.864,0.265,1.125,0.38l0.151,0.066c0.047,0.02,0.094,0.043,0.137,0.069c0.848,0.516,1.376,1.309,1.489,2.233c0.061,0.498,0.051,3.893,0.03,6.855c0.087,1.285,0.305,2.364,0.593,3.146c0.409,1.114,1.431,3.241,3.394,3.119c1.37-0.085,2.687-0.919,3.561-2.019c0.938-1.181,1.284-2.487,1.414-3.958V34z"/><path style="fill:#0277BD;" d="M15.114,28.917c-1.613-1.683-2.399-3.947-2.104-6.056c0.285-2.035,0.124-4.027,0.037-5.098c-0.029-0.357-0.048-0.623-0.047-0.77c0-0.008,0.002-0.015,0.003-0.023c0-0.004-0.002-0.007-0.002-0.011c0.121-3.021,1.286-7.787,4.493-10.62C15.932,5.724,13.388,4.913,11,5C7.258,5.136,3.636,7.724,4,15c0.137,2.73,3.222,19.103,7.44,19c0.603-0.015,1.229-0.402,1.872-1.176c1.017-1.223,2.005-2.332,2.708-3.104C15.705,29.481,15.401,29.217,15.114,28.917z"/><path style="fill:#0277BD;" d="M37.023,14.731c0.015,0.154,0.002,0.286-0.022,0.408c0.031,0.92-0.068,1.813-0.169,2.677c-0.074,0.636-0.15,1.293-0.171,1.952c-0.021,0.645,0.07,1.282,0.166,1.956c0.225,1.578,0.459,3.359-0.765,5.437c0.225,0.296,0.423,0.571,0.581,0.837c4.61-7.475,6.468-16.361,4.695-18.626C38.655,5.944,34.941,4.952,31.999,5c-0.921,0.015-1.758,0.139-2.473,0.294C34.602,7.754,36.863,13.026,37.023,14.731z"/><path style="fill:#0277BD;" d="M41,30.071c-2.665,0.55-3.947,0.257-4.569-0.126c-0.1,0.072-0.2,0.133-0.293,0.19c-0.372,0.225-0.961,0.583-1.105,2.782c0.083,0.016,0.156,0.025,0.246,0.044L35.714,33c1.32,0.06,3.049-0.31,4.063-0.781C41.962,31.205,43.153,29.627,41,30.071z"/><path style="fill:#0277BD;" d="M22.023,32.119c-0.037-0.298-0.198-0.539-0.492-0.732l-0.108-0.047C21.062,31.181,20.653,31,20,31h-0.004c-0.127,0.01-0.253,0.019-0.38,0.019c-0.052,0-0.103-0.007-0.155-0.009c-0.474,0.365-1.148,0.647-2.816,0.99c-2.98,0.759-1.221,1.655-0.078,1.794c1.106,0.277,3.735,0.614,5.481-0.809C22.043,32.537,22.035,32.229,22.023,32.119z"/><path style="fill:#0277BD;" d="M20.681,18.501c-0.292,0.302-0.753,0.566-1.262,0.484c-0.828-0.134-1.463-1.133-1.417-1.508h0c0.044-0.374,0.751-0.569,1.578-0.435c0.287,0.047,0.548,0.128,0.768,0.228c-0.32-0.688-0.899-1.085-1.782-1.182c-1.565-0.174-3.226,0.644-3.56,1.097c0.007,0.11,0.02,0.251,0.033,0.417c0.093,1.147,0.265,3.284-0.05,5.537c-0.208,1.485,0.393,3.169,1.567,4.395c0.757,0.79,1.641,1.29,2.513,1.438c0.111-0.478,0.309-0.944,0.513-1.425c0.113-0.265,0.233-0.547,0.346-0.852l0.162-0.427c0.443-1.155,0.9-2.35,0.909-4.703C21.003,20.66,20.892,19.627,20.681,18.501z"/><path style="fill:#0277BD;" d="M34.847,22.007c-0.104-0.729-0.211-1.484-0.185-2.303c0.023-0.742,0.105-1.442,0.184-2.119c0.062-0.533,0.11-1.045,0.138-1.55c-1.289,0.107-2.145,0.479-2.551,1.108c0.168-0.057,0.358-0.102,0.568-0.129c0.892-0.116,1.543,0.141,1.618,0.637c0.055,0.363-0.253,0.705-0.388,0.836c-0.277,0.269-0.626,0.442-0.981,0.488c-0.064,0.008-0.129,0.012-0.192,0.012c-0.353,0-0.69-0.121-0.949-0.3c0.112,1.973,1.567,4.612,2.283,5.907c0.153,0.277,0.271,0.498,0.369,0.688C35.154,24.163,35.009,23.143,34.847,22.007z"/></svg>