<svg height="128" viewBox="0 0 128 128" width="128" xmlns="http://www.w3.org/2000/svg"><path d="m-.00000002 8.9337 49.854.1586 14.167 24.47 14.432-24.47 49.547-.1577-63.834 110.14zm126.98.6374-24.36.0207-38.476 66.052-38.453-66.052-24.749-.0194 63.211 107.89zm-25.149-.008-22.745.16758-15.053 24.647-14.817-24.647-22.794-.1679 37.731 64.476zm-75.83399998-.1702 23.002.0087m-23.002-.0087 23.002.0087" fill="none"/><path d="m25.997 9.3929 23.002.0087 15.036 24.958 14.983-24.956 22.982-.0057-37.85 65.655z" fill="#35495e"/><path d="m.91068 9.5686 25.066-.1711 38.151 65.658 37.852-65.654 25.11.0263-62.966 108.06z" fill="#41b883"/></svg>